G75*
G70*
%OFA0B0*%
%FSLAX24Y24*%
%IPPOS*%
%LPD*%
%AMOC8*
5,1,8,0,0,1.08239X$1,22.5*
%
%ADD10C,0.0000*%
D10*
X000257Y000100D02*
X001517Y000100D01*
X001517Y001517D01*
X001675Y001675D01*
X001675Y003840D01*
X001674Y003840D02*
X001672Y003894D01*
X001667Y003947D01*
X001658Y004000D01*
X001645Y004052D01*
X001629Y004104D01*
X001609Y004154D01*
X001586Y004202D01*
X001559Y004249D01*
X001530Y004294D01*
X001497Y004337D01*
X001462Y004377D01*
X001424Y004415D01*
X001384Y004450D01*
X001341Y004483D01*
X001296Y004512D01*
X001249Y004539D01*
X001201Y004562D01*
X001151Y004582D01*
X001099Y004598D01*
X001047Y004611D01*
X000994Y004620D01*
X000941Y004625D01*
X000887Y004627D01*
X000833Y004625D01*
X000780Y004620D01*
X000727Y004611D01*
X000675Y004598D01*
X000623Y004582D01*
X000573Y004562D01*
X000525Y004539D01*
X000478Y004512D01*
X000433Y004483D01*
X000390Y004450D01*
X000350Y004415D01*
X000312Y004377D01*
X000277Y004337D01*
X000244Y004294D01*
X000215Y004249D01*
X000188Y004202D01*
X000165Y004154D01*
X000145Y004104D01*
X000129Y004052D01*
X000116Y004000D01*
X000107Y003947D01*
X000102Y003894D01*
X000100Y003840D01*
X000100Y001675D01*
X000257Y001517D01*
X000257Y000100D01*
M02*
